<svg xmlns="http://www.w3.org/2000/svg" viewBox="0 0 1600 900" role="img" aria-hidden="true">
  <defs>
    <linearGradient id="bg" x1="0" y1="0" x2="1" y2="1">
      <stop offset="0%" stop-color="#052e16"/>
      <stop offset="100%" stop-color="#14532d"/>
    </linearGradient>
    <radialGradient id="glowA" cx="0.18" cy="0.22" r="0.5">
      <stop offset="0%" stop-color="rgba(255,255,255,0.32)"/>
      <stop offset="100%" stop-color="rgba(255,255,255,0)"/>
    </radialGradient>
    <radialGradient id="glowB" cx="0.82" cy="0.18" r="0.42">
      <stop offset="0%" stop-color="#22c55e" stop-opacity="0.32"/>
      <stop offset="100%" stop-color="#22c55e" stop-opacity="0"/>
    </radialGradient>
    <linearGradient id="accentStroke" x1="0" y1="0" x2="1" y2="0">
      <stop offset="0%" stop-color="#22c55e" stop-opacity="0.95"/>
      <stop offset="100%" stop-color="#f59e0b" stop-opacity="0.92"/>
    </linearGradient>
  </defs>
  <rect width="1600" height="900" fill="url(#bg)"/>
  <rect width="1600" height="900" fill="url(#glowA)"/>
  <rect width="1600" height="900" fill="url(#glowB)"/>
  <g opacity="0.18">
    <circle cx="180" cy="140" r="6" fill="#fff"/>
    <circle cx="300" cy="220" r="4" fill="#fff"/>
    <circle cx="1380" cy="210" r="5" fill="#fff"/>
    <circle cx="1260" cy="140" r="4" fill="#fff"/>
    <circle cx="1180" cy="310" r="3" fill="#fff"/>
    <circle cx="220" cy="320" r="3" fill="#fff"/>
  </g>
  <g opacity="0.12">
    <path d="M0 720 C280 640 390 840 690 760 S1160 620 1600 760" fill="none" stroke="#fff" stroke-width="2"/>
    <path d="M0 780 C220 700 470 830 720 770 S1220 650 1600 810" fill="none" stroke="#fff" stroke-width="2"/>
  </g>
  
  <g transform="translate(230,120)">
    <circle cx="560" cy="320" r="210" fill="rgba(255,255,255,0.18)" stroke="rgba(255,255,255,0.18)" stroke-width="10"/>
    <circle cx="560" cy="320" r="126" fill="rgba(255,255,255,0.10)"/>
    <path d="M560 110 V530" stroke="rgba(255,255,255,0.12)" stroke-width="8"/>
    <path d="M350 320 H770" stroke="rgba(255,255,255,0.12)" stroke-width="8"/>
    <ellipse cx="470" cy="260" rx="56" ry="86" fill="url(#accentStroke)" opacity="0.86"/>
    <ellipse cx="660" cy="270" rx="62" ry="92" fill="#34d399" opacity="0.76"/>
    <ellipse cx="552" cy="404" rx="108" ry="54" fill="#f8fafc" opacity="0.82"/>
    <path d="M176 640 C260 516 350 486 430 528" fill="none" stroke="#fff" stroke-width="12" stroke-linecap="round" opacity="0.18"/>
    <path d="M912 630 C820 510 728 488 640 532" fill="none" stroke="#fff" stroke-width="12" stroke-linecap="round" opacity="0.18"/>
  </g>

</svg>