<svg xmlns="http://www.w3.org/2000/svg" viewBox="0 0 1600 900" role="img" aria-hidden="true">
  <defs>
    <linearGradient id="bg" x1="0" y1="0" x2="1" y2="1">
      <stop offset="0%" stop-color="#111827"/>
      <stop offset="100%" stop-color="#1d4ed8"/>
    </linearGradient>
    <radialGradient id="glowA" cx="0.18" cy="0.22" r="0.5">
      <stop offset="0%" stop-color="rgba(255,255,255,0.32)"/>
      <stop offset="100%" stop-color="rgba(255,255,255,0)"/>
    </radialGradient>
    <radialGradient id="glowB" cx="0.82" cy="0.18" r="0.42">
      <stop offset="0%" stop-color="#38bdf8" stop-opacity="0.32"/>
      <stop offset="100%" stop-color="#38bdf8" stop-opacity="0"/>
    </radialGradient>
    <linearGradient id="accentStroke" x1="0" y1="0" x2="1" y2="0">
      <stop offset="0%" stop-color="#38bdf8" stop-opacity="0.95"/>
      <stop offset="100%" stop-color="#f97316" stop-opacity="0.92"/>
    </linearGradient>
  </defs>
  <rect width="1600" height="900" fill="url(#bg)"/>
  <rect width="1600" height="900" fill="url(#glowA)"/>
  <rect width="1600" height="900" fill="url(#glowB)"/>
  <g opacity="0.18">
    <circle cx="180" cy="140" r="6" fill="#fff"/>
    <circle cx="300" cy="220" r="4" fill="#fff"/>
    <circle cx="1380" cy="210" r="5" fill="#fff"/>
    <circle cx="1260" cy="140" r="4" fill="#fff"/>
    <circle cx="1180" cy="310" r="3" fill="#fff"/>
    <circle cx="220" cy="320" r="3" fill="#fff"/>
  </g>
  <g opacity="0.12">
    <path d="M0 720 C280 640 390 840 690 760 S1160 620 1600 760" fill="none" stroke="#fff" stroke-width="2"/>
    <path d="M0 780 C220 700 470 830 720 770 S1220 650 1600 810" fill="none" stroke="#fff" stroke-width="2"/>
  </g>
  
  <g opacity="0.22">
    <circle cx="320" cy="330" r="160" fill="#fff"/>
    <circle cx="1280" cy="230" r="190" fill="#fff"/>
  </g>
  <g transform="translate(260,170)">
    <rect x="0" y="0" width="1080" height="560" rx="42" fill="rgba(255,255,255,0.08)" stroke="rgba(255,255,255,0.18)"/>
    <rect x="64" y="72" width="360" height="164" rx="28" fill="rgba(255,255,255,0.18)"/>
    <rect x="468" y="72" width="548" height="92" rx="22" fill="rgba(255,255,255,0.16)"/>
    <rect x="468" y="188" width="548" height="48" rx="18" fill="rgba(255,255,255,0.12)"/>
    <rect x="64" y="284" width="952" height="194" rx="32" fill="rgba(255,255,255,0.10)"/>
    <path d="M120 420 C240 372 290 460 410 388 S620 352 700 414 S880 470 960 360" fill="none" stroke="url(#accentStroke)" stroke-width="18" stroke-linecap="round"/>
    <circle cx="960" cy="360" r="18" fill="#fff" opacity="0.92"/>
    <circle cx="250" cy="156" r="76" fill="url(#accentStroke)" opacity="0.84"/>
  </g>

</svg>