<svg xmlns="http://www.w3.org/2000/svg" viewBox="0 0 1600 900" role="img" aria-hidden="true">
  <defs>
    <linearGradient id="bg" x1="0" y1="0" x2="1" y2="1">
      <stop offset="0%" stop-color="#082f49"/>
      <stop offset="100%" stop-color="#0f766e"/>
    </linearGradient>
    <radialGradient id="glowA" cx="0.18" cy="0.22" r="0.5">
      <stop offset="0%" stop-color="rgba(255,255,255,0.32)"/>
      <stop offset="100%" stop-color="rgba(255,255,255,0)"/>
    </radialGradient>
    <radialGradient id="glowB" cx="0.82" cy="0.18" r="0.42">
      <stop offset="0%" stop-color="#2dd4bf" stop-opacity="0.32"/>
      <stop offset="100%" stop-color="#2dd4bf" stop-opacity="0"/>
    </radialGradient>
    <linearGradient id="accentStroke" x1="0" y1="0" x2="1" y2="0">
      <stop offset="0%" stop-color="#2dd4bf" stop-opacity="0.95"/>
      <stop offset="100%" stop-color="#60a5fa" stop-opacity="0.92"/>
    </linearGradient>
  </defs>
  <rect width="1600" height="900" fill="url(#bg)"/>
  <rect width="1600" height="900" fill="url(#glowA)"/>
  <rect width="1600" height="900" fill="url(#glowB)"/>
  <g opacity="0.18">
    <circle cx="180" cy="140" r="6" fill="#fff"/>
    <circle cx="300" cy="220" r="4" fill="#fff"/>
    <circle cx="1380" cy="210" r="5" fill="#fff"/>
    <circle cx="1260" cy="140" r="4" fill="#fff"/>
    <circle cx="1180" cy="310" r="3" fill="#fff"/>
    <circle cx="220" cy="320" r="3" fill="#fff"/>
  </g>
  <g opacity="0.12">
    <path d="M0 720 C280 640 390 840 690 760 S1160 620 1600 760" fill="none" stroke="#fff" stroke-width="2"/>
    <path d="M0 780 C220 700 470 830 720 770 S1220 650 1600 810" fill="none" stroke="#fff" stroke-width="2"/>
  </g>
  
  <g transform="translate(300,120)">
    <circle cx="500" cy="110" r="48" fill="#f8fafc" opacity="0.90"/>
    <rect x="458" y="156" width="84" height="206" rx="38" fill="rgba(255,255,255,0.70)"/>
    <rect x="378" y="188" width="38" height="236" rx="18" transform="rotate(20 378 188)" fill="rgba(255,255,255,0.68)"/>
    <rect x="584" y="188" width="38" height="236" rx="18" transform="rotate(-20 584 188)" fill="rgba(255,255,255,0.68)"/>
    <rect x="454" y="354" width="42" height="278" rx="20" transform="rotate(10 454 354)" fill="rgba(255,255,255,0.66)"/>
    <rect x="506" y="354" width="42" height="278" rx="20" transform="rotate(-10 506 354)" fill="rgba(255,255,255,0.66)"/>
    <circle cx="338" cy="286" r="42" fill="url(#accentStroke)" opacity="0.88"/>
    <circle cx="662" cy="286" r="42" fill="#60a5fa" opacity="0.82"/>
    <circle cx="470" cy="648" r="38" fill="#34d399" opacity="0.82"/>
    <circle cx="534" cy="648" r="38" fill="#34d399" opacity="0.82"/>
  </g>

</svg>