<svg xmlns="http://www.w3.org/2000/svg" viewBox="0 0 1600 900" role="img" aria-hidden="true">
  <defs>
    <linearGradient id="bg" x1="0" y1="0" x2="1" y2="1">
      <stop offset="0%" stop-color="#071522"/>
      <stop offset="100%" stop-color="#0f766e"/>
    </linearGradient>
    <radialGradient id="glowA" cx="0.18" cy="0.22" r="0.5">
      <stop offset="0%" stop-color="rgba(255,255,255,0.32)"/>
      <stop offset="100%" stop-color="rgba(255,255,255,0)"/>
    </radialGradient>
    <radialGradient id="glowB" cx="0.82" cy="0.18" r="0.42">
      <stop offset="0%" stop-color="#22d3ee" stop-opacity="0.32"/>
      <stop offset="100%" stop-color="#22d3ee" stop-opacity="0"/>
    </radialGradient>
    <linearGradient id="accentStroke" x1="0" y1="0" x2="1" y2="0">
      <stop offset="0%" stop-color="#22d3ee" stop-opacity="0.95"/>
      <stop offset="100%" stop-color="#f59e0b" stop-opacity="0.92"/>
    </linearGradient>
  </defs>
  <rect width="1600" height="900" fill="url(#bg)"/>
  <rect width="1600" height="900" fill="url(#glowA)"/>
  <rect width="1600" height="900" fill="url(#glowB)"/>
  <g opacity="0.18">
    <circle cx="180" cy="140" r="6" fill="#fff"/>
    <circle cx="300" cy="220" r="4" fill="#fff"/>
    <circle cx="1380" cy="210" r="5" fill="#fff"/>
    <circle cx="1260" cy="140" r="4" fill="#fff"/>
    <circle cx="1180" cy="310" r="3" fill="#fff"/>
    <circle cx="220" cy="320" r="3" fill="#fff"/>
  </g>
  <g opacity="0.12">
    <path d="M0 720 C280 640 390 840 690 760 S1160 620 1600 760" fill="none" stroke="#fff" stroke-width="2"/>
    <path d="M0 780 C220 700 470 830 720 770 S1220 650 1600 810" fill="none" stroke="#fff" stroke-width="2"/>
  </g>
  
  <rect y="760" width="1600" height="140" fill="#08111f" opacity="0.62"/>
  <g opacity="0.25">
    <path d="M260 0 L340 0 L560 900 L480 900 Z" fill="#fff"/>
    <path d="M1240 0 L1320 0 L1100 900 L1020 900 Z" fill="#fff"/>
  </g>
  <g transform="translate(440,130)">
    <circle cx="360" cy="126" r="44" fill="#f8fafc" opacity="0.92"/>
    <rect x="334" y="172" width="52" height="158" rx="24" fill="#cbd5e1" opacity="0.9"/>
    <rect x="302" y="290" width="36" height="160" rx="18" transform="rotate(16 302 290)" fill="#cbd5e1" opacity="0.88"/>
    <rect x="382" y="290" width="36" height="160" rx="18" transform="rotate(-16 382 290)" fill="#cbd5e1" opacity="0.88"/>
    <rect x="286" y="138" width="26" height="170" rx="13" transform="rotate(34 286 138)" fill="#cbd5e1" opacity="0.88"/>
    <rect x="408" y="138" width="26" height="170" rx="13" transform="rotate(-34 408 138)" fill="#cbd5e1" opacity="0.88"/>
    <path d="M130 260 Q360 340 590 260" fill="none" stroke="url(#accentStroke)" stroke-width="22" stroke-linecap="round"/>
    <circle cx="130" cy="260" r="42" fill="#dbeafe" opacity="0.88"/>
    <circle cx="590" cy="260" r="42" fill="#dbeafe" opacity="0.88"/>
    <circle cx="130" cy="260" r="20" fill="#08111f" opacity="0.65"/>
    <circle cx="590" cy="260" r="20" fill="#08111f" opacity="0.65"/>
    <path d="M260 530 Q360 474 460 530" fill="none" stroke="#111827" stroke-width="26" stroke-linecap="round"/>
  </g>
  <g opacity="0.18">
    <circle cx="270" cy="260" r="90" fill="#fff"/>
    <circle cx="1330" cy="280" r="110" fill="#38bdf8"/>
  </g>

</svg>