<svg xmlns="http://www.w3.org/2000/svg" viewBox="0 0 1600 900" role="img" aria-hidden="true">
  <defs>
    <linearGradient id="bg" x1="0" y1="0" x2="1" y2="1">
      <stop offset="0%" stop-color="#08111f"/>
      <stop offset="100%" stop-color="#1d4ed8"/>
    </linearGradient>
    <radialGradient id="glowA" cx="0.18" cy="0.22" r="0.5">
      <stop offset="0%" stop-color="rgba(255,255,255,0.32)"/>
      <stop offset="100%" stop-color="rgba(255,255,255,0)"/>
    </radialGradient>
    <radialGradient id="glowB" cx="0.82" cy="0.18" r="0.42">
      <stop offset="0%" stop-color="#60a5fa" stop-opacity="0.32"/>
      <stop offset="100%" stop-color="#60a5fa" stop-opacity="0"/>
    </radialGradient>
    <linearGradient id="accentStroke" x1="0" y1="0" x2="1" y2="0">
      <stop offset="0%" stop-color="#60a5fa" stop-opacity="0.95"/>
      <stop offset="100%" stop-color="#f97316" stop-opacity="0.92"/>
    </linearGradient>
  </defs>
  <rect width="1600" height="900" fill="url(#bg)"/>
  <rect width="1600" height="900" fill="url(#glowA)"/>
  <rect width="1600" height="900" fill="url(#glowB)"/>
  <g opacity="0.18">
    <circle cx="180" cy="140" r="6" fill="#fff"/>
    <circle cx="300" cy="220" r="4" fill="#fff"/>
    <circle cx="1380" cy="210" r="5" fill="#fff"/>
    <circle cx="1260" cy="140" r="4" fill="#fff"/>
    <circle cx="1180" cy="310" r="3" fill="#fff"/>
    <circle cx="220" cy="320" r="3" fill="#fff"/>
  </g>
  <g opacity="0.12">
    <path d="M0 720 C280 640 390 840 690 760 S1160 620 1600 760" fill="none" stroke="#fff" stroke-width="2"/>
    <path d="M0 780 C220 700 470 830 720 770 S1220 650 1600 810" fill="none" stroke="#fff" stroke-width="2"/>
  </g>
  
  <rect y="760" width="1600" height="140" fill="#0b1220" opacity="0.58"/>
  <g opacity="0.22">
    <rect x="100" y="120" width="300" height="12" rx="6" fill="#fff"/>
    <rect x="500" y="120" width="250" height="12" rx="6" fill="#fff"/>
    <rect x="860" y="120" width="290" height="12" rx="6" fill="#fff"/>
  </g>
  <g transform="translate(220,175)">
    <rect x="0" y="0" width="1160" height="26" rx="13" fill="url(#accentStroke)"/>
    <circle cx="40" cy="13" r="36" fill="#dbeafe" opacity="0.9"/>
    <circle cx="40" cy="13" r="19" fill="#0f172a" opacity="0.75"/>
    <circle cx="1120" cy="13" r="36" fill="#dbeafe" opacity="0.9"/>
    <circle cx="1120" cy="13" r="19" fill="#0f172a" opacity="0.75"/>
    <circle cx="112" cy="13" r="22" fill="#cbd5e1" opacity="0.8"/>
    <circle cx="1048" cy="13" r="22" fill="#cbd5e1" opacity="0.8"/>
  </g>
  <g opacity="0.95">
    <rect x="520" y="495" width="360" height="26" rx="13" fill="#111827"/>
    <rect x="590" y="516" width="44" height="150" rx="16" fill="#111827"/>
    <rect x="766" y="516" width="44" height="150" rx="16" fill="#111827"/>
    <rect x="720" y="420" width="80" height="96" rx="22" fill="#1f2937"/>
  </g>
  <g>
    <ellipse cx="800" cy="580" rx="180" ry="58" fill="#0f172a" opacity="0.72"/>
    <rect x="688" y="534" width="232" height="48" rx="24" fill="#c4b5fd" opacity="0.72"/>
    <circle cx="655" cy="560" r="44" fill="#e2e8f0" opacity="0.88"/>
    <rect x="712" y="555" width="180" height="28" rx="14" fill="#e2e8f0" opacity="0.82"/>
    <rect x="748" y="516" width="30" height="54" rx="15" fill="#e2e8f0" opacity="0.84"/>
    <rect x="826" y="516" width="30" height="54" rx="15" fill="#e2e8f0" opacity="0.84"/>
    <rect x="710" y="580" width="92" height="24" rx="12" transform="rotate(18 710 580)" fill="#e2e8f0" opacity="0.84"/>
    <rect x="802" y="580" width="92" height="24" rx="12" transform="rotate(-18 802 580)" fill="#e2e8f0" opacity="0.84"/>
  </g>
  <g opacity="0.24">
    <path d="M190 690 C360 540 470 520 610 630" fill="none" stroke="url(#accentStroke)" stroke-width="10" stroke-linecap="round"/>
    <path d="M990 650 C1120 560 1270 560 1420 690" fill="none" stroke="url(#accentStroke)" stroke-width="10" stroke-linecap="round"/>
  </g>

</svg>