<svg xmlns="http://www.w3.org/2000/svg" viewBox="0 0 1600 900" role="img" aria-hidden="true">
  <defs>
    <linearGradient id="bg" x1="0" y1="0" x2="1" y2="1">
      <stop offset="0%" stop-color="#111827"/>
      <stop offset="100%" stop-color="#7c2d12"/>
    </linearGradient>
    <radialGradient id="glowA" cx="0.18" cy="0.22" r="0.5">
      <stop offset="0%" stop-color="rgba(255,255,255,0.32)"/>
      <stop offset="100%" stop-color="rgba(255,255,255,0)"/>
    </radialGradient>
    <radialGradient id="glowB" cx="0.82" cy="0.18" r="0.42">
      <stop offset="0%" stop-color="#fb7185" stop-opacity="0.32"/>
      <stop offset="100%" stop-color="#fb7185" stop-opacity="0"/>
    </radialGradient>
    <linearGradient id="accentStroke" x1="0" y1="0" x2="1" y2="0">
      <stop offset="0%" stop-color="#fb7185" stop-opacity="0.95"/>
      <stop offset="100%" stop-color="#f59e0b" stop-opacity="0.92"/>
    </linearGradient>
  </defs>
  <rect width="1600" height="900" fill="url(#bg)"/>
  <rect width="1600" height="900" fill="url(#glowA)"/>
  <rect width="1600" height="900" fill="url(#glowB)"/>
  <g opacity="0.18">
    <circle cx="180" cy="140" r="6" fill="#fff"/>
    <circle cx="300" cy="220" r="4" fill="#fff"/>
    <circle cx="1380" cy="210" r="5" fill="#fff"/>
    <circle cx="1260" cy="140" r="4" fill="#fff"/>
    <circle cx="1180" cy="310" r="3" fill="#fff"/>
    <circle cx="220" cy="320" r="3" fill="#fff"/>
  </g>
  <g opacity="0.12">
    <path d="M0 720 C280 640 390 840 690 760 S1160 620 1600 760" fill="none" stroke="#fff" stroke-width="2"/>
    <path d="M0 780 C220 700 470 830 720 770 S1220 650 1600 810" fill="none" stroke="#fff" stroke-width="2"/>
  </g>
  
  <rect y="760" width="1600" height="140" fill="#111827" opacity="0.58"/>
  <g transform="translate(420,120)">
    <path d="M180 80 H580" stroke="url(#accentStroke)" stroke-width="26" stroke-linecap="round"/>
    <circle cx="170" cy="80" r="44" fill="#dbeafe" opacity="0.9"/>
    <circle cx="590" cy="80" r="44" fill="#dbeafe" opacity="0.9"/>
    <circle cx="170" cy="80" r="20" fill="#0f172a" opacity="0.72"/>
    <circle cx="590" cy="80" r="20" fill="#0f172a" opacity="0.72"/>
    <circle cx="380" cy="150" r="44" fill="#f8fafc" opacity="0.9"/>
    <rect x="346" y="194" width="68" height="160" rx="30" fill="#cbd5e1" opacity="0.88"/>
    <rect x="280" y="210" width="32" height="170" rx="16" transform="rotate(24 280 210)" fill="#cbd5e1" opacity="0.88"/>
    <rect x="448" y="210" width="32" height="170" rx="16" transform="rotate(-24 448 210)" fill="#cbd5e1" opacity="0.88"/>
    <rect x="326" y="350" width="36" height="240" rx="18" transform="rotate(10 326 350)" fill="#cbd5e1" opacity="0.88"/>
    <rect x="404" y="350" width="36" height="240" rx="18" transform="rotate(-10 404 350)" fill="#cbd5e1" opacity="0.88"/>
    <path d="M310 635 H448" stroke="#111827" stroke-width="32" stroke-linecap="round"/>
  </g>
  <g opacity="0.18">
    <path d="M120 700 C300 630 420 590 600 660" fill="none" stroke="#fff" stroke-width="8" stroke-linecap="round"/>
    <path d="M980 650 C1120 610 1300 610 1480 700" fill="none" stroke="#fff" stroke-width="8" stroke-linecap="round"/>
  </g>

</svg>