<svg xmlns="http://www.w3.org/2000/svg" viewBox="0 0 1600 900" role="img" aria-hidden="true">
  <defs>
    <linearGradient id="bg" x1="0" y1="0" x2="1" y2="1">
      <stop offset="0%" stop-color="#0f172a"/>
      <stop offset="100%" stop-color="#14532d"/>
    </linearGradient>
    <radialGradient id="glowA" cx="0.18" cy="0.22" r="0.5">
      <stop offset="0%" stop-color="rgba(255,255,255,0.32)"/>
      <stop offset="100%" stop-color="rgba(255,255,255,0)"/>
    </radialGradient>
    <radialGradient id="glowB" cx="0.82" cy="0.18" r="0.42">
      <stop offset="0%" stop-color="#34d399" stop-opacity="0.32"/>
      <stop offset="100%" stop-color="#34d399" stop-opacity="0"/>
    </radialGradient>
    <linearGradient id="accentStroke" x1="0" y1="0" x2="1" y2="0">
      <stop offset="0%" stop-color="#34d399" stop-opacity="0.95"/>
      <stop offset="100%" stop-color="#fbbf24" stop-opacity="0.92"/>
    </linearGradient>
  </defs>
  <rect width="1600" height="900" fill="url(#bg)"/>
  <rect width="1600" height="900" fill="url(#glowA)"/>
  <rect width="1600" height="900" fill="url(#glowB)"/>
  <g opacity="0.18">
    <circle cx="180" cy="140" r="6" fill="#fff"/>
    <circle cx="300" cy="220" r="4" fill="#fff"/>
    <circle cx="1380" cy="210" r="5" fill="#fff"/>
    <circle cx="1260" cy="140" r="4" fill="#fff"/>
    <circle cx="1180" cy="310" r="3" fill="#fff"/>
    <circle cx="220" cy="320" r="3" fill="#fff"/>
  </g>
  <g opacity="0.12">
    <path d="M0 720 C280 640 390 840 690 760 S1160 620 1600 760" fill="none" stroke="#fff" stroke-width="2"/>
    <path d="M0 780 C220 700 470 830 720 770 S1220 650 1600 810" fill="none" stroke="#fff" stroke-width="2"/>
  </g>
  
  <defs>
    <linearGradient id="trailGrad" x1="0" y1="0" x2="0" y2="1">
      <stop offset="0%" stop-color="#fbbf24" stop-opacity="0.96"/>
      <stop offset="100%" stop-color="#f59e0b" stop-opacity="0.86"/>
    </linearGradient>
  </defs>
  <circle cx="1220" cy="180" r="86" fill="#fde68a" opacity="0.76"/>
  <path d="M0 620 L200 420 L360 540 L560 300 L780 560 L980 250 L1180 470 L1380 220 L1600 520 L1600 900 L0 900 Z" fill="#0f172a" opacity="0.42"/>
  <path d="M0 680 L260 470 L430 620 L650 350 L860 610 L1040 330 L1240 560 L1450 300 L1600 610 L1600 900 L0 900 Z" fill="#1f2937" opacity="0.72"/>
  <path d="M0 760 L320 560 L540 740 L760 450 L990 730 L1190 520 L1430 760 L1600 640 L1600 900 L0 900 Z" fill="#334155" opacity="0.88"/>
  <path d="M640 900 C660 820 760 770 790 700 C820 628 900 610 930 560 C968 496 1048 488 1080 438 C1112 392 1174 366 1238 360 L1328 900 Z" fill="url(#trailGrad)" opacity="0.95"/>
  <g transform="translate(1040,470)">
    <circle cx="0" cy="0" r="24" fill="#f8fafc" opacity="0.96"/>
    <path d="M-6 18 L26 104" stroke="#e2e8f0" stroke-width="18" stroke-linecap="round"/>
    <path d="M-4 26 L-52 86" stroke="#e2e8f0" stroke-width="16" stroke-linecap="round"/>
    <path d="M8 28 L52 70" stroke="#e2e8f0" stroke-width="16" stroke-linecap="round"/>
    <path d="M18 64 L-10 136" stroke="#e2e8f0" stroke-width="16" stroke-linecap="round"/>
    <path d="M18 64 L64 132" stroke="#e2e8f0" stroke-width="16" stroke-linecap="round"/>
    <path d="M46 44 L82 22" stroke="url(#accentStroke)" stroke-width="10" stroke-linecap="round"/>
  </g>

</svg>